HIERARCHY
ROOT Hips
{
	OFFSET -3.958830 18.904000 13.208200
	CHANNELS 6 Xposition Yposition Zposition Zrotation Yrotation Xrotation 
	JOINT LHipJoint
	{
		OFFSET 0.000000 0.000000 0.000000
		CHANNELS 3 Zrotation Yrotation Xrotation
		JOINT LeftUpLeg
		{
			OFFSET 1.800000 -1.400000 0.085000
			CHANNELS 3 Zrotation Yrotation Xrotation
			JOINT LeftLeg
			{
				OFFSET 2.215000 -6.000000 0.000000
				CHANNELS 3 Zrotation Yrotation Xrotation
				JOINT LeftFoot
				{
					OFFSET 2.500000 -6.900000 0.000000
					CHANNELS 3 Zrotation Yrotation Xrotation
					JOINT LeftToeBase
					{
						OFFSET 0.200000 -0.500000 1.950000
						CHANNELS 3 Zrotation Yrotation Xrotation
						End Site
						{
							OFFSET 0.000000 0.000000 0.000000
						}
					}
				}
			}
		}
	}
	JOINT RHipJoint
	{
		OFFSET 0.000000 0.000000 0.000000
		CHANNELS 3 Zrotation Yrotation Xrotation
		JOINT RightUpLeg
		{
			OFFSET -1.800000 -1.400000 0.085000
			CHANNELS 3 Zrotation Yrotation Xrotation
			JOINT RightLeg
			{
				OFFSET -2.215000 -6.000000 0.000000
				CHANNELS 3 Zrotation Yrotation Xrotation
				JOINT RightFoot
				{
					OFFSET -2.500000 -6.900000 0.000000
					CHANNELS 3 Zrotation Yrotation Xrotation
					JOINT RightToeBase
					{
						OFFSET -0.200000 -0.500000 1.950000
						CHANNELS 3 Zrotation Yrotation Xrotation
						End Site
						{
							OFFSET 0.000000 0.000000 0.000000
						}
					}
				}
			}
		}
	}
	JOINT LowerBack
	{
		OFFSET 0.000000 0.000000 0.000000
		CHANNELS 3 Zrotation Yrotation Xrotation
		JOINT Spine
		{
			OFFSET -0.087000 1.940000 -0.288900
			CHANNELS 3 Zrotation Yrotation Xrotation
			JOINT Spine1
			{
				OFFSET 0.000000 1.950000 0.060000
				CHANNELS 3 Zrotation Yrotation Xrotation
				JOINT Neck
				{
					OFFSET 0.000000 0.000000 0.000000
					CHANNELS 3 Zrotation Yrotation Xrotation
					JOINT Neck1
					{
						OFFSET 0.000000 1.600000 0.340000
						CHANNELS 3 Zrotation Yrotation Xrotation
						JOINT Head
						{
							OFFSET 0.000000 1.667000 -0.240000
							CHANNELS 3 Zrotation Yrotation Xrotation
							End Site
							{
								OFFSET 0.000000 0.000000 0.000000
							}
						}
					}
				}
				JOINT LeftShoulder
				{
					OFFSET 0.000000 0.000000 0.000000
					CHANNELS 3 Zrotation Yrotation Xrotation
					JOINT LeftArm
					{
						OFFSET 2.700000 1.550000 -0.730000
						CHANNELS 3 Zrotation Yrotation Xrotation
						JOINT LeftForeArm
						{
							OFFSET 5.450000 0.000000 0.000000
							CHANNELS 3 Zrotation Yrotation Xrotation
							JOINT LeftHand
							{
								OFFSET 3.450000 0.000000 0.000000
								CHANNELS 3 Zrotation Yrotation Xrotation
								JOINT LeftHandIndex1
								{
									OFFSET 0.750000 0.000000 0.000000
									CHANNELS 3 Zrotation Yrotation Xrotation
									End Site
									{
										OFFSET 0.000000 0.000000 0.000000
									}
								}
							}
						}
					}
				}
				JOINT RightShoulder
				{
					OFFSET 0.000000 0.000000 0.000000
					CHANNELS 3 Zrotation Yrotation Xrotation
					JOINT RightArm
					{
						OFFSET -2.700000 1.550000 -0.730000
						CHANNELS 3 Zrotation Yrotation Xrotation
						JOINT RightForeArm
						{
							OFFSET -5.450000 0.000000 0.000000
							CHANNELS 3 Zrotation Yrotation Xrotation
							JOINT RightHand
							{
								OFFSET -3.450000 0.000000 0.000000
								CHANNELS 3 Zrotation Yrotation Xrotation
								JOINT RightHandIndex1
								{
									OFFSET -0.750000 0.000000 0.000000
									CHANNELS 3 Zrotation Yrotation Xrotation
									End Site
									{
										OFFSET 0.000000 0.000000 0.000000
									}
								}
							}
						}
					}
				}
			}
		}
	}
}
MOTION
Frames: 12
Frame Time: 0.016667
0.346020 17.272730 -2.511910 -4.244927 2.855445 -11.746196 -15.123900 14.129292 3.465998 2.725552 0.613318 0.743706 -6.807992 5.428002 6.054000 0.383131 3.809040 3.135002 0.450650 0.411160 0.503970 18.141916 -10.877138 2.782991 -1.935116 -1.146195 -3.072195 3.769351 -5.222794 15.200276 -0.545137 -3.434211 3.092972 -0.036900 -0.422190 0.104970 -3.539600 -3.262066 -8.071911 17.977756 -6.437170 30.890235 -7.549137 -0.903405 7.004467 4.353359 -2.566843 -17.456890 -13.201675 2.306631 56.498325 -3.725920 -1.964220 -9.218410 -4.631915 -16.214016 9.404143 -8.308967 1.737486 -8.284978 118.572958 -12.519614 -28.954161 -3.251423 3.142687 0.447380 -0.410970 0.507180 0.031170 -3.647356 19.341925 11.153884 25.539838 -8.579341 -20.071978 -119.631156 4.340441 -21.105802 2.838727 -2.329771 0.238660 -0.100110 -0.326590 0.026320 
0.344560 17.251490 -2.467740 -4.796235 0.967944 -11.848083 -15.234659 14.398679 3.544212 3.639899 0.628652 1.184493 -7.154520 5.520006 5.743289 0.417578 3.926922 3.062670 0.534510 0.502120 0.562670 18.010139 -10.555271 2.929510 -1.868824 -1.285286 -0.892819 4.963964 -5.125540 12.145674 -0.641612 -3.406574 3.075846 -0.004640 -0.483630 0.132780 -3.164907 -4.184685 -8.254075 18.487844 -6.442055 32.724388 -8.668330 0.898112 1.162440 5.582806 -2.082533 -19.259830 -14.412711 3.742630 63.001346 -4.113570 -2.841830 -9.210200 -8.409474 -19.075714 9.591928 -4.591473 0.996036 -7.552991 120.588509 -6.365886 -17.875980 -3.232588 3.201564 0.488620 -0.461870 0.585390 0.042500 -1.822834 23.436599 11.620885 21.430467 -9.309184 -20.457258 -118.886565 -6.032873 -1.973184 3.045797 -2.449521 0.289770 -0.101470 -0.354790 0.034970 
0.337800 17.231570 -2.429520 -4.901979 -0.258053 -11.026853 -15.279942 14.471602 3.560623 3.684926 0.537976 0.723676 -7.201826 5.465761 5.687673 0.356308 3.916503 3.049569 0.579650 0.565830 0.583310 17.951447 -10.403857 3.069518 -2.181093 -1.318553 0.222512 6.251366 -4.964345 9.183640 -0.683678 -3.422981 3.058716 0.058610 -0.478550 0.113730 -2.992209 -4.518444 -8.378780 18.116790 -5.715463 32.615992 -8.805910 2.432597 -2.833908 5.544352 -1.368330 -20.410808 -13.898414 4.354719 68.081150 -2.219740 -4.046200 -7.743800 -10.189261 -20.853664 9.157392 -2.017724 -2.618780 -6.667070 123.233121 1.179035 -3.554506 -3.242674 3.281529 0.503760 -0.460600 0.595810 0.050630 0.480791 25.522914 12.009411 17.233291 -9.004788 -19.318482 -118.488503 -14.157752 12.903502 3.172706 -2.472917 0.272830 -0.058540 -0.361190 0.031170 
0.330340 17.223780 -2.413380 -5.061746 -1.096714 -11.118285 -15.308797 14.444571 3.581530 4.012788 0.559752 1.388765 -7.447732 5.421910 4.856339 0.346772 3.981811 3.008795 0.631520 0.625720 0.643650 17.931645 -10.274191 3.175483 -2.593046 -1.467038 1.880009 7.385092 -4.940938 6.870084 -0.777603 -3.541827 2.987106 0.095400 -0.507000 0.126500 -2.905662 -4.674186 -8.450564 17.800941 -5.761291 33.241065 -9.143038 2.945909 -4.979038 5.340162 -0.726708 -21.392489 -12.724861 4.800041 71.846718 -0.845840 -3.796180 -8.701230 -9.797283 -22.288580 8.845372 -0.629516 -5.604728 -6.832146 126.447413 7.915517 9.444828 -3.246218 3.392840 0.542020 -0.479500 0.643250 0.039600 0.713862 26.820073 12.460024 16.327722 -6.659773 -18.653092 -118.074063 -18.520323 20.010529 3.227098 -2.450165 0.280400 -0.045110 -0.374950 0.015670 
0.328970 17.235850 -2.435140 -5.185115 -1.984999 -12.669720 -15.345470 14.371297 3.590108 4.291961 0.801441 3.415982 -7.093472 5.393249 3.807536 0.352455 4.121868 2.954293 0.673580 0.660960 0.710380 17.925133 -10.145228 3.259029 -3.224740 -1.771738 4.415313 8.231405 -5.013603 4.861082 -0.887623 -3.783455 2.885475 0.125180 -0.563370 0.130620 -2.831559 -4.749148 -8.495614 17.341790 -5.850786 35.508373 -9.262039 3.053369 -4.149815 5.506800 -0.028229 -21.416634 -10.704362 3.898357 72.597312 -1.912190 -3.066120 -11.675940 -9.666545 -23.126973 8.575806 0.420631 -6.802250 -7.253680 129.756860 9.747916 13.048021 -3.227462 3.436072 0.591390 -0.508650 0.682770 0.020970 0.072487 27.268724 12.709647 17.787626 -5.535009 -19.336896 -116.508803 -17.762447 16.859095 3.195407 -2.416816 0.273150 -0.041800 -0.391100 -0.022130 
0.328800 17.240070 -2.502020 -5.296281 -2.891697 -15.030317 -15.234534 14.062822 3.518327 4.423516 1.030497 5.828044 -6.570142 5.508997 3.868825 0.383661 4.285349 2.919867 0.620000 0.582070 0.698810 18.061943 -10.344108 3.270060 -4.275542 -2.095005 6.202193 9.102259 -5.470250 5.081488 -0.930749 -4.124255 2.778421 0.087890 -0.555870 0.137110 -3.156003 -3.914530 -8.396612 17.711634 -5.865195 37.095592 -8.919314 2.265749 3.830104 4.886770 -0.163590 -20.193429 -9.756432 2.390703 66.937533 -2.560000 -2.487440 -14.378280 -9.025023 -24.864903 8.572770 2.789457 -6.051025 -9.652573 128.827696 9.905063 9.225325 -3.317270 3.437641 0.599120 -0.496640 0.653510 -0.011300 -0.106667 27.730427 13.231389 18.463641 -6.998157 -21.894082 -112.593370 -11.624583 2.636703 3.132171 -2.346019 0.245140 -0.058310 -0.362050 -0.048670 
0.329960 17.270820 -2.574250 -4.959378 -2.897862 -17.089449 -15.132266 13.755181 3.397249 3.978320 1.210432 7.261666 -5.858172 5.611201 4.649421 0.380037 4.372111 2.926432 0.520200 0.468160 0.640040 18.196662 -10.601836 3.196175 -5.822542 -2.297680 7.028785 9.957777 -6.020247 6.209751 -0.901873 -4.454950 2.695313 0.045700 -0.491040 0.133710 -3.484044 -3.038853 -8.194674 16.884626 -5.879431 38.736254 -7.839295 0.596973 11.861154 4.008277 -1.065019 -17.016034 -9.150645 1.000856 56.102816 -2.728450 -1.300220 -18.268910 -6.507681 -23.400266 7.718333 2.757104 -4.983778 -12.188353 123.572457 6.355554 -1.986811 -3.428690 3.394810 0.555610 -0.438990 0.559430 -0.054690 -1.277368 25.115988 12.757194 19.555453 -7.627073 -23.420112 -107.960300 0.922181 -17.271308 2.935142 -2.198932 0.194900 -0.069410 -0.302730 -0.068770 
0.339430 17.315180 -2.645670 -5.399632 -1.794224 -18.556629 -15.112417 13.737110 3.219879 4.263926 1.240849 6.903761 -4.932360 5.745177 6.803066 0.387954 4.381733 2.967966 0.458080 0.387090 0.597490 18.228705 -10.751320 3.108343 -6.014323 -2.309366 6.715747 10.217449 -6.449157 8.267207 -0.849639 -4.608173 2.665063 0.009690 -0.443900 0.153300 -3.571805 -2.746512 -7.966290 16.833792 -6.423104 41.212765 -7.630711 -0.712933 16.002945 4.084805 -1.198819 -14.387786 -7.297312 -1.203662 46.151384 -4.545930 -0.858500 -20.597600 -2.747582 -19.351483 6.374021 1.476083 -5.106338 -13.313397 116.229778 -1.707667 -15.778660 -3.458391 3.342440 0.486380 -0.385660 0.485990 -0.054730 -5.294274 20.169892 11.875935 22.982714 -8.760906 -23.608452 -103.879677 14.802376 -33.582072 2.790782 -2.086224 0.181480 -0.109520 -0.290060 -0.065580 
0.341520 17.377550 -2.723880 -5.244131 -1.569954 -19.715260 -15.191250 13.995314 3.175223 4.060301 1.310737 6.164028 -4.109588 5.852321 8.756073 0.363496 4.422497 2.988067 0.396290 0.310000 0.547690 18.134195 -10.780157 2.903954 -6.186851 -1.922947 4.682143 9.828337 -6.864020 12.244294 -0.734001 -4.572504 2.693510 -0.006920 -0.390030 0.136790 -3.336543 -3.140459 -7.782954 14.922893 -6.243465 44.669254 -6.450818 -1.347100 17.886032 4.372273 -2.056509 -13.044537 -7.567245 -2.075657 40.021186 -5.223820 -0.786860 -21.495970 0.430802 -14.608570 5.272439 -0.971945 -3.650497 -13.590951 109.244514 -12.254262 -28.197794 -3.471983 3.251341 0.451310 -0.343780 0.412440 -0.057170 -9.032329 16.199421 11.128678 22.514594 -9.836594 -22.295599 -99.616604 27.057987 -43.703791 2.687746 -1.941485 0.134130 -0.105910 -0.264780 -0.071670 
0.345550 17.430980 -2.809250 -5.038922 -2.188565 -19.215566 -15.269103 14.401579 3.125860 3.258919 1.078352 2.782912 -2.964260 5.774551 11.849550 0.287550 4.257068 3.064892 0.337800 0.234050 0.524130 18.006200 -10.823019 2.691809 -5.630555 -0.909184 -0.283823 9.260083 -7.322279 18.354963 -0.612022 -4.397985 2.747371 -0.046070 -0.346650 0.123690 -3.033188 -3.721299 -7.650821 12.586712 -5.391071 46.517844 -4.329826 -1.287523 17.966157 4.379337 -2.139751 -12.835087 -7.475736 -2.337934 38.700421 -5.550800 -0.421870 -21.835700 1.935908 -11.481294 4.882923 -1.336399 0.315035 -12.752258 103.597946 -25.075616 -38.902926 -3.458767 3.101294 0.460800 -0.328100 0.389750 -0.056750 -10.631664 13.721380 10.778053 18.187486 -12.898879 -19.634346 -97.142498 40.613601 -53.259866 2.548135 -1.576524 0.092090 -0.077900 -0.249030 -0.074400 
0.342050 17.481810 -2.882640 -5.153329 -2.106131 -17.456231 -15.280725 14.626888 3.054084 2.824007 0.499992 -1.881255 -2.464344 5.683925 15.043381 0.205053 3.994842 3.115319 0.330010 0.231930 0.548890 17.945733 -10.888913 2.617383 -4.350722 0.471293 -6.975536 8.139466 -7.649326 24.773647 -0.567772 -4.270060 2.767543 -0.081610 -0.388910 0.121010 -2.920706 -3.899773 -7.599459 10.963384 -5.016776 46.314690 -2.603368 -1.537109 18.154839 4.282008 -1.090866 -13.183343 -5.983311 -2.025880 41.520673 -6.322790 0.898950 -25.287310 2.375910 -9.988728 5.343127 -1.415231 6.206948 -11.324969 103.915734 -38.575703 -52.789872 -3.342933 2.904123 0.512700 -0.368230 0.442100 -0.072400 -10.817293 11.670903 10.441012 13.757375 -14.535433 -16.566010 -98.127446 52.834946 -63.714430 2.375365 -0.864607 0.101280 -0.069650 -0.254760 -0.089200 
0.348950 17.505300 -2.955180 -5.288150 -0.710439 -15.119187 -15.282202 14.690515 3.018573 1.380392 -0.474982 -7.266983 -1.024646 5.283016 18.683839 0.135972 3.677137 3.159478 0.329680 0.237310 0.556200 17.919380 -10.806909 2.723165 -4.022466 2.044123 -15.108988 7.798614 -8.598150 31.988287 -0.632188 -4.592347 2.605785 -0.127430 -0.460740 0.130410 -2.906481 -4.048204 -7.658380 10.104627 -5.550329 44.969920 -1.328864 -2.590145 18.317190 4.250468 -1.024711 -14.228256 -6.751662 -0.931708 45.356101 -7.208360 2.080890 -29.244570 3.421405 -8.578622 6.820960 -1.961184 11.367155 -8.610347 110.696564 -52.846739 -76.211809 -3.201210 2.698212 0.580530 -0.436670 0.511710 -0.085470 -11.549768 9.936632 10.343340 10.850411 -16.834600 -13.815858 -100.607371 64.276354 -74.434854 2.154728 0.615702 0.133020 -0.094020 -0.260290 -0.098110 
